<?xml version="1.0"?>
<svg width="512" height="512" xmlns="http://www.w3.org/2000/svg" xmlns:svg="http://www.w3.org/2000/svg">
 <g class="layer">
  <title>Layer 1</title>
  <g id="svg_1">
   <g id="svg_2">
    <path d="m435.312891,329.040664c-27.774082,-27.718629 -60.832441,-48.238686 -96.900996,-60.660473c38.630508,-26.55449 64.00998,-70.995559 64.00998,-121.247379c0,-81.128834 -66.133652,-147.132813 -147.421875,-147.132813s-147.421875,66.003979 -147.421875,147.132813c0,50.25182 25.379473,94.692889 64.010977,121.247379c-36.068555,12.421787 -69.126914,32.941844 -96.900996,60.660473c-48.163125,48.069682 -74.688105,111.98 -74.688105,179.959336l39.84375,0c0,-118.405131 96.518496,-214.734375 215.15625,-214.734375s215.15625,96.329244 215.15625,214.734375l39.84375,0c0,-67.979336 -26.52498,-131.889654 -74.687109,-179.959336zm-180.312891,-74.540664c-59.318379,0 -107.578125,-48.164125 -107.578125,-107.367188s48.259746,-107.367188 107.578125,-107.367188c59.318379,0 107.578125,48.164125 107.578125,107.367188s-48.259746,107.367188 -107.578125,107.367188z" fill="#bb9c5c" id="svg_3"/>
   </g>
  </g>
  <g id="svg_4"/>
  <g id="svg_5"/>
  <g id="svg_6"/>
  <g id="svg_7"/>
  <g id="svg_8"/>
  <g id="svg_9"/>
  <g id="svg_10"/>
  <g id="svg_11"/>
  <g id="svg_12"/>
  <g id="svg_13"/>
  <g id="svg_14"/>
  <g id="svg_15"/>
  <g id="svg_16"/>
  <g id="svg_17"/>
  <g id="svg_18"/>
 </g>
</svg>