<svg width="19" height="23" viewBox="0 0 19 23" fill="none" xmlns="http://www.w3.org/2000/svg">
<path fill-rule="evenodd" clip-rule="evenodd" d="M5.14949 15.6716H15.2241C15.521 15.6716 15.8057 15.7896 16.0157 15.9995C16.2256 16.2094 16.3435 16.4942 16.3435 16.791C16.3435 17.0879 16.2256 17.3727 16.0157 17.5826C15.8057 17.7925 15.521 17.9104 15.2241 17.9104H4.03008C3.7332 17.9104 3.44848 17.7925 3.23855 17.5826C3.02862 17.3727 2.91068 17.0879 2.91068 16.791V2.23881H1.79128C1.49439 2.23881 1.20967 2.12087 0.999741 1.91094C0.789812 1.70101 0.671875 1.41629 0.671875 1.1194C0.671875 0.822519 0.789812 0.537794 0.999741 0.327865C1.20967 0.117937 1.49439 0 1.79128 0H4.03008C4.32697 0 4.61169 0.117937 4.82162 0.327865C5.03155 0.537794 5.14949 0.822519 5.14949 1.1194V3.35933L5.2312 3.35821H16.2618C17.5435 3.35821 18.5823 4.36007 18.5823 5.59701C18.5823 5.76045 18.5633 5.92276 18.5264 6.08284L17.2379 11.6798C17.0028 12.7041 16.0603 13.4328 14.9722 13.4328H5.2312L5.14949 13.4317V15.6716ZM4.58979 22.3881C4.14446 22.3881 3.71737 22.2112 3.40248 21.8963C3.08759 21.5814 2.91068 21.1543 2.91068 20.709C2.91068 20.2636 3.08759 19.8365 3.40248 19.5216C3.71737 19.2068 4.14446 19.0299 4.58979 19.0299C5.03511 19.0299 5.4622 19.2068 5.77709 19.5216C6.09199 19.8365 6.26889 20.2636 6.26889 20.709C6.26889 21.1543 6.09199 21.5814 5.77709 21.8963C5.4622 22.2112 5.03511 22.3881 4.58979 22.3881ZM14.6644 22.3881C14.2191 22.3881 13.792 22.2112 13.4771 21.8963C13.1622 21.5814 12.9853 21.1543 12.9853 20.709C12.9853 20.2636 13.1622 19.8365 13.4771 19.5216C13.792 19.2068 14.2191 19.0299 14.6644 19.0299C15.1097 19.0299 15.5368 19.2068 15.8517 19.5216C16.1666 19.8365 16.3435 20.2636 16.3435 20.709C16.3435 21.1543 16.1666 21.5814 15.8517 21.8963C15.5368 22.2112 15.1097 22.3881 14.6644 22.3881ZM5.14949 5.59701V11.194H15.0349L16.3435 5.59701H5.14949Z" fill="#BB9C5C"/>
</svg>
