<svg width="21" height="21" viewBox="0 0 21 21" fill="none" xmlns="http://www.w3.org/2000/svg">
<path d="M19.6834 18.4429L16.045 14.8152C17.2189 13.3196 17.8559 11.4728 17.8535 9.57153C17.8535 7.87832 17.3514 6.22313 16.4107 4.81528C15.47 3.40742 14.133 2.31014 12.5686 1.66217C11.0043 1.01421 9.28298 0.84467 7.62231 1.175C5.96163 1.50533 4.4362 2.32069 3.23892 3.51797C2.04164 4.71525 1.22628 6.24068 0.895947 7.90136C0.565618 9.56204 0.735155 11.2834 1.38312 12.8477C2.03108 14.412 3.12837 15.7491 4.53623 16.6898C5.94408 17.6305 7.59927 18.1326 9.29248 18.1326C11.1937 18.1349 13.0406 17.498 14.5361 16.324L18.1639 19.9625C18.2633 20.0628 18.3817 20.1424 18.5121 20.1967C18.6425 20.2511 18.7824 20.279 18.9236 20.279C19.0649 20.279 19.2048 20.2511 19.3352 20.1967C19.4656 20.1424 19.584 20.0628 19.6834 19.9625C19.7837 19.863 19.8633 19.7446 19.9177 19.6142C19.972 19.4838 20 19.344 20 19.2027C20 19.0614 19.972 18.9216 19.9177 18.7911C19.8633 18.6607 19.7837 18.5424 19.6834 18.4429ZM2.87171 9.57153C2.87171 8.30163 3.24828 7.06023 3.9538 6.00434C4.65933 4.94845 5.66211 4.12549 6.83536 3.63951C8.0086 3.15354 9.2996 3.02639 10.5451 3.27413C11.7906 3.52188 12.9347 4.1334 13.8327 5.03136C14.7306 5.92932 15.3421 7.0734 15.5899 8.3189C15.8376 9.56441 15.7105 10.8554 15.2245 12.0287C14.7385 13.2019 13.9156 14.2047 12.8597 14.9102C11.8038 15.6157 10.5624 15.9923 9.29248 15.9923C7.58959 15.9923 5.95644 15.3158 4.75231 14.1117C3.54818 12.9076 2.87171 11.2744 2.87171 9.57153Z" fill="#282828" stroke="#282828" stroke-width="0.607202"/>
</svg>
