<svg width="422" height="368" viewBox="0 0 422 368" fill="none" xmlns="http://www.w3.org/2000/svg">
<path opacity="0.15" fill-rule="evenodd" clip-rule="evenodd" d="M78.4907 42.7683C63.0148 81.2024 60.2722 89.4142 62.2311 91.5811C62.525 92.0372 135.987 92.2653 225.414 92.1511L388.01 91.8092L404.957 49.6112C415.828 22.6958 421.901 6.04454 422 3.64957V0L258.718 0.228073L95.3381 0.570363L78.4907 42.7683ZM22.4919 216.671C20.6635 212.314 18.1827 206.253 15.8254 200.494C14.2182 196.567 12.6684 192.781 11.4218 189.77C8.43457 182.343 4.6567 173.007 2.98727 168.992C1.14219 164.476 0 160.36 0 157.75V153.634H30.8385H61.6769L61.3256 158.955C60.974 162.469 59.3048 167.787 55.9663 175.718C50.9582 187.661 45.6866 200.612 38.2188 219.081C33.9137 229.721 33.7378 229.921 30.9264 229.921C28.0271 229.921 27.9392 229.721 22.4919 216.671ZM46.5282 363.91C46.5282 361.159 49.7813 352.915 59.063 332.691C65.9368 317.706 81.8595 282.687 94.4767 254.938L94.4831 254.924L94.5632 254.748C107.194 226.966 122.695 192.804 129.011 178.863L140.589 153.634L249.769 153.829L358.948 154.124L359.235 157.07C359.426 159.229 354.929 170.028 342.873 196.337L326.317 232.66L255.128 233.15L183.935 233.64L153.602 300.394L123.088 367.661L84.9945 367.442L46.5282 367.641V363.91Z" fill="#D8B263"/>
</svg>
