<svg width="136" height="24" viewBox="0 0 136 24" fill="none" xmlns="http://www.w3.org/2000/svg">
<path d="M0.159789 22.9051C0.0532641 22.9051 0 22.8511 0 22.7431L0.0639205 0.48596C0.0639205 0.399567 0.106525 0.356371 0.191745 0.356371H10.4181C10.5247 0.356371 10.5779 0.399567 10.5779 0.48596V4.14686C10.5779 4.23325 10.5353 4.27645 10.4501 4.27645H3.89882V9.29804H10.4501C10.5353 9.29804 10.5779 9.35203 10.5779 9.46002L10.6099 13.1209C10.6099 13.2073 10.5566 13.2505 10.4501 13.2505H3.89882V22.7431C3.89882 22.8511 3.84555 22.9051 3.73903 22.9051H0.159789ZM10.4919 22.7431L14.4546 0.48596C14.4759 0.399567 14.5292 0.356371 14.6144 0.356371H19.2483C19.3335 0.356371 19.3868 0.399567 19.4081 0.48596L23.211 22.7431C23.2323 22.8511 23.1897 22.9051 23.0832 22.9051H19.5359C19.4507 22.9051 19.3974 22.8511 19.3761 22.7431L19.0246 20.3781H14.6783L14.3268 22.7431C14.3055 22.8511 14.2522 22.9051 14.167 22.9051H10.6197C10.5345 22.9051 10.4919 22.8511 10.4919 22.7431ZM15.3175 16.9116H18.3854L17.0752 7.80776L16.8834 6.60906L16.7556 7.80776L15.3175 16.9116ZM30.0251 23.229C28.8747 23.229 27.8201 22.9375 26.8613 22.3543C25.9239 21.7496 25.1676 20.9612 24.5924 19.9893C24.0384 18.9958 23.7615 17.9051 23.7615 16.7172V15.2268C23.7615 15.1188 23.8147 15.0648 23.9212 15.0648H27.5005C27.5857 15.0648 27.6283 15.1188 27.6283 15.2268V16.7172C27.6283 17.4299 27.8627 18.0455 28.3314 18.5638C28.8001 19.0606 29.3647 19.309 30.0251 19.309C30.6856 19.309 31.2502 19.0498 31.7189 18.5314C32.1876 18.0131 32.4219 17.4083 32.4219 16.7172C32.4219 15.9179 31.9106 15.2268 30.888 14.6436C30.5471 14.4492 30.0145 14.1468 29.2901 13.7365C28.5657 13.3261 27.884 12.9373 27.2448 12.5702C26.0731 11.879 25.1996 11.0151 24.6243 9.97838C24.0704 8.92007 23.7934 7.73217 23.7934 6.41467C23.7934 5.20517 24.081 4.12526 24.6563 3.17494C25.2315 2.20302 25.9878 1.43628 26.9253 0.874728C27.884 0.313174 28.9173 0.0323971 30.0251 0.0323971C31.1543 0.0323971 32.1876 0.323974 33.125 0.907126C34.0837 1.46868 34.8401 2.23542 35.394 3.20734C35.9692 4.15766 36.2568 5.22677 36.2568 6.41467V9.07126C36.2568 9.15765 36.2142 9.20085 36.129 9.20085H32.5498C32.4646 9.20085 32.4219 9.15765 32.4219 9.07126L32.39 6.41467C32.39 5.65874 32.1556 5.04319 31.6869 4.56803C31.2182 4.09286 30.6643 3.85528 30.0251 3.85528C29.3647 3.85528 28.8001 4.11446 28.3314 4.63282C27.8627 5.12958 27.6283 5.72353 27.6283 6.41467C27.6283 7.12742 27.7775 7.72137 28.0757 8.19653C28.374 8.67169 28.9173 9.12525 29.7056 9.55722C29.8121 9.62201 30.0145 9.7408 30.3127 9.91359C30.6323 10.0648 30.9732 10.2484 31.3354 10.4643C31.6976 10.6587 32.0172 10.8315 32.2941 10.9827C32.5924 11.1339 32.7735 11.2311 32.8374 11.2743C33.9026 11.879 34.7442 12.6242 35.362 13.5097C35.9799 14.3736 36.2888 15.4427 36.2888 16.7172C36.2888 17.9483 36.0012 19.0606 35.4259 20.0541C34.872 21.026 34.1157 21.8035 33.157 22.3867C32.2195 22.9483 31.1756 23.229 30.0251 23.229ZM36.8007 22.7431L40.7634 0.48596C40.7847 0.399567 40.838 0.356371 40.9232 0.356371H45.557C45.6422 0.356371 45.6955 0.399567 45.7168 0.48596L49.5197 22.7431C49.541 22.8511 49.4984 22.9051 49.3919 22.9051H45.8446C45.7594 22.9051 45.7061 22.8511 45.6848 22.7431L45.3333 20.3781H40.9871L40.6356 22.7431C40.6142 22.8511 40.561 22.9051 40.4758 22.9051H36.9285C36.8433 22.9051 36.8007 22.8511 36.8007 22.7431ZM41.6262 16.9116H44.6942L43.3839 7.80776L43.1922 6.60906L43.0643 7.80776L41.6262 16.9116ZM51.6851 22.9051C51.5786 22.9051 51.5253 22.8511 51.5253 22.7431L51.5893 0.48596C51.5893 0.399567 51.6319 0.356371 51.7171 0.356371L57.6931 0.323974C58.8649 0.302375 59.9302 0.583152 60.8889 1.1663C61.8689 1.74946 62.6465 2.53779 63.2218 3.53131C63.797 4.50323 64.0846 5.58314 64.0846 6.77104V16.0692C64.0846 17.3219 63.7864 18.4666 63.1898 19.5033C62.5933 20.5185 61.7943 21.3284 60.793 21.9331C59.7917 22.5379 58.6625 22.8511 57.4055 22.8727L51.6851 22.9051ZM55.4241 18.9202H57.4055C58.1938 18.9202 58.8543 18.6394 59.3869 18.0779C59.9408 17.5163 60.2178 16.8468 60.2178 16.0692V6.73865C60.2178 6.04751 59.9621 5.45355 59.4508 4.95679C58.9608 4.43844 58.3749 4.19006 57.6931 4.21165L55.4561 4.24405L55.4241 18.9202ZM66.9715 22.9051C66.8863 22.9051 66.8437 22.8511 66.8437 22.7431L66.8757 0.48596C66.8757 0.399567 66.9289 0.356371 67.0355 0.356371H70.5827C70.6893 0.356371 70.7425 0.399567 70.7425 0.48596L70.7106 9.29804H75.5042V0.48596C75.5042 0.399567 75.5468 0.356371 75.632 0.356371H79.1793C79.2858 0.356371 79.3391 0.399567 79.3391 0.48596L79.403 22.7431C79.403 22.8511 79.3497 22.9051 79.2432 22.9051H75.664C75.5574 22.9051 75.5042 22.8511 75.5042 22.7431V13.2181H70.7106V22.7431C70.7106 22.8511 70.668 22.9051 70.5827 22.9051H66.9715ZM87.9231 23.229C86.7727 23.229 85.7181 22.9375 84.7593 22.3543C83.8219 21.7496 83.0656 20.9612 82.4904 19.9893C81.9151 18.9958 81.6275 17.9051 81.6275 16.7172L81.6595 6.44707C81.6595 5.25917 81.9364 4.17926 82.4904 3.20734C83.0656 2.23542 83.8326 1.45788 84.7913 0.874728C85.75 0.291576 86.794 0 87.9231 0C89.0736 0 90.1176 0.291576 91.055 0.874728C91.9924 1.45788 92.7381 2.23542 93.292 3.20734C93.8672 4.17926 94.1549 5.25917 94.1549 6.44707L94.1868 16.7172C94.1868 17.9051 93.8992 18.9958 93.324 19.9893C92.77 20.9612 92.0137 21.7496 91.055 22.3543C90.1176 22.9375 89.0736 23.229 87.9231 23.229ZM87.9231 19.309C88.5623 19.309 89.1162 19.0498 89.5849 18.5314C90.0749 17.9915 90.32 17.3867 90.32 16.7172L90.288 6.44707C90.288 5.73433 90.0643 5.12958 89.6169 4.63282C89.1695 4.13606 88.6049 3.88768 87.9231 3.88768C87.2627 3.88768 86.6981 4.13606 86.2294 4.63282C85.7607 5.10798 85.5263 5.71273 85.5263 6.44707V16.7172C85.5263 17.4299 85.7607 18.0455 86.2294 18.5638C86.6981 19.0606 87.2627 19.309 87.9231 19.309ZM102.684 23.229C101.555 23.229 100.511 22.9375 99.5522 22.3543C98.5935 21.7496 97.8265 20.9504 97.2513 19.9569C96.6973 18.9634 96.4204 17.8727 96.4204 16.6848L96.4843 0.48596C96.4843 0.399567 96.5269 0.356371 96.6121 0.356371H100.191C100.277 0.356371 100.319 0.399567 100.319 0.48596V16.6848C100.319 17.4191 100.543 18.0455 100.99 18.5638C101.459 19.0606 102.024 19.309 102.684 19.309C103.366 19.309 103.93 19.0606 104.378 18.5638C104.846 18.0455 105.081 17.4191 105.081 16.6848V0.48596C105.081 0.399567 105.123 0.356371 105.209 0.356371H108.788C108.873 0.356371 108.916 0.399567 108.916 0.48596L108.98 16.6848C108.98 17.8943 108.692 18.9958 108.117 19.9893C107.563 20.9828 106.807 21.7712 105.848 22.3543C104.91 22.9375 103.856 23.229 102.684 23.229ZM116.936 23.229C115.785 23.229 114.731 22.9375 113.772 22.3543C112.835 21.7496 112.078 20.9612 111.503 19.9893C110.949 18.9958 110.672 17.9051 110.672 16.7172V15.2268C110.672 15.1188 110.725 15.0648 110.832 15.0648H114.411C114.496 15.0648 114.539 15.1188 114.539 15.2268V16.7172C114.539 17.4299 114.773 18.0455 115.242 18.5638C115.711 19.0606 116.275 19.309 116.936 19.309C117.596 19.309 118.161 19.0498 118.629 18.5314C119.098 18.0131 119.333 17.4083 119.333 16.7172C119.333 15.9179 118.821 15.2268 117.799 14.6436C117.458 14.4492 116.925 14.1468 116.201 13.7365C115.476 13.3261 114.795 12.9373 114.155 12.5702C112.984 11.879 112.11 11.0151 111.535 9.97838C110.981 8.92007 110.704 7.73217 110.704 6.41467C110.704 5.20517 110.992 4.12526 111.567 3.17494C112.142 2.20302 112.898 1.43628 113.836 0.874728C114.795 0.313174 115.828 0.0323971 116.936 0.0323971C118.065 0.0323971 119.098 0.323974 120.036 0.907126C120.994 1.46868 121.751 2.23542 122.305 3.20734C122.88 4.15766 123.167 5.22677 123.167 6.41467V9.07126C123.167 9.15765 123.125 9.20085 123.04 9.20085H119.46C119.375 9.20085 119.333 9.15765 119.333 9.07126L119.301 6.41467C119.301 5.65874 119.066 5.04319 118.598 4.56803C118.129 4.09286 117.575 3.85528 116.936 3.85528C116.275 3.85528 115.711 4.11446 115.242 4.63282C114.773 5.12958 114.539 5.72353 114.539 6.41467C114.539 7.12742 114.688 7.72137 114.986 8.19653C115.285 8.67169 115.828 9.12525 116.616 9.55722C116.723 9.62201 116.925 9.7408 117.223 9.91359C117.543 10.0648 117.884 10.2484 118.246 10.4643C118.608 10.6587 118.928 10.8315 119.205 10.9827C119.503 11.1339 119.684 11.2311 119.748 11.2743C120.813 11.879 121.655 12.6242 122.273 13.5097C122.89 14.3736 123.199 15.4427 123.199 16.7172C123.199 17.9483 122.912 19.0606 122.337 20.0541C121.783 21.026 121.026 21.8035 120.068 22.3867C119.13 22.9483 118.086 23.229 116.936 23.229ZM125.55 22.9051C125.465 22.9051 125.422 22.8511 125.422 22.7431L125.454 0.48596C125.454 0.399567 125.497 0.356371 125.582 0.356371H135.84C135.925 0.356371 135.968 0.410366 135.968 0.518357V4.14686C135.968 4.23325 135.925 4.27645 135.84 4.27645H129.289V9.33044H135.84C135.925 9.33044 135.968 9.37363 135.968 9.46002L136 13.1209C136 13.2073 135.957 13.2505 135.872 13.2505H129.289V18.9202H135.872C135.957 18.9202 136 18.9742 136 19.0822V22.7755C136 22.8619 135.957 22.9051 135.872 22.9051H125.55Z" fill="white"/>
</svg>
